# xmcd
#
# Track frame offsets:
#	150
#	10910
#	19780
#	32560
#	44250
#	53800
#	64442
#	76892
#	88432
#	98755
#	111720
#	124107
#
# Disc length: 1781 seconds
# Revision: 0
# Processed by: cddbd v1.5.2PL0 Copyright (c) Steve Scherf et al.
# Submitted via: dBpowerAMP V12.0
#
DISCID=a006f30c
DTITLE=Ralph Stanley and the Clinch Mountain Boys - Over the Sunset Hill
DYEAR=1968
DGENRE=Country
TTITLE0=A Little Soldier for Jesus
TTITLE1=Jesse James Prayed
TTITLE2=Snow Covered Mound
TTITLE3=I'll Be With Dad and Mother
TTITLE4=Thou Long Expected Jesus
TTITLE5=Be Ready to Go
TTITLE6=Over the Sunset Hill
TTITLE7=Going up Home to Live in Green Pastures
TTITLE8=What Kind of Man
TTITLE9=I Want a Clear Record
TTITLE10=Prepare Me O Lord
TTITLE11=I Wanna Go Home
EXTD=
EXTT0=
EXTT1=
EXTT2=
EXTT3=
EXTT4=
EXTT5=
EXTT6=
EXTT7=
EXTT8=
EXTT9=
EXTT10=
EXTT11=
PLAYORDER=
